<svg width="28" height="24" viewBox="0 0 28 24" fill="none" xmlns="http://www.w3.org/2000/svg">
  <!-- 客服头像图标 (小尺寸) -->
  <g transform="translate(2, 0)">
    <rect x="6.27" y="5.32" width="11.45" height="15.27" rx="5.73" fill="none" stroke="currentColor" stroke-width="1.91" stroke-miterlimit="10"/>
    <path d="M17.73,9.14h1.91A2.86,2.86,0,0,1,22.5,12v1.91a2.86,2.86,0,0,1-2.86,2.86H17.73a0,0,0,0,1,0,0V9.14A0,0,0,0,1,17.73,9.14Z" fill="none" stroke="currentColor" stroke-width="1.91" stroke-miterlimit="10"/>
    <path d="M1.5,9.14H3.41A2.86,2.86,0,0,1,6.27,12v1.91a2.86,2.86,0,0,1-2.86,2.86H1.5a0,0,0,0,1,0,0V9.14A0,0,0,0,1,1.5,9.14Z" transform="translate(7.77 25.91) rotate(180)" fill="none" stroke="currentColor" stroke-width="1.91" stroke-miterlimit="10"/>
    <path d="M4.36,9.14h0A7.64,7.64,0,0,1,12,1.5h0a7.64,7.64,0,0,1,7.64,7.64h0" fill="none" stroke="currentColor" stroke-width="1.91" stroke-miterlimit="10"/>
    <path d="M19.64,16.77v1a4.78,4.78,0,0,1-4.78,4.77" fill="none" stroke="currentColor" stroke-width="1.91" stroke-miterlimit="10"/>
  </g>
  <!-- Dot 装饰点 -->
  <circle cx="22" cy="4" r="2.5" fill="var(--el-color-primary, #409EFF)"/>
</svg>
